<svg width="44" height="44" viewBox="0 0 44 44" fill="none" xmlns="http://www.w3.org/2000/svg">
<circle cx="22" cy="22" r="14" fill="#A7CD20"/>
<path d="M6.46473 6.46447L14.8299 8.7059L8.70617 14.8296L6.46473 6.46447Z" fill="#A7CD20"/>
<path d="M37.6066 6.53551L29.2414 8.77695L35.3651 14.9007L37.6066 6.53551Z" fill="#A7CD20"/>
<path d="M29.6551 34.9555L35.45 28.5197L38.1261 36.7561L29.6551 34.9555Z" fill="#A7CD20"/>
<path d="M15.0558 35.8454L9.26099 29.4096L6.58482 37.646L15.0558 35.8454Z" fill="#A7CD20"/>
<path d="M44 22L36.5 26.3301V17.6699L44 22Z" fill="#A7CD20"/>
<path d="M0 22L7.5 17.6699L7.5 26.3301L0 22Z" fill="#A7CD20"/>
<path d="M22 44L17.6699 36.5H26.3301L22 44Z" fill="#A7CD20"/>
<path d="M22 0L26.3301 7.5H17.6699L22 0Z" fill="#A7CD20"/>
<path d="M19.302 19.3C19.834 19.0947 20.352 18.8333 20.856 18.516C21.36 18.1893 21.822 17.7833 22.242 17.298H23.166V27H21.864V19.104C21.752 19.2067 21.612 19.314 21.444 19.426C21.2853 19.538 21.108 19.6453 20.912 19.748C20.7253 19.8507 20.5247 19.9487 20.31 20.042C20.1047 20.1353 19.904 20.2147 19.708 20.28L19.302 19.3Z" fill="black"/>
</svg>
