<svg width="44" height="44" viewBox="0 0 44 44" fill="none" xmlns="http://www.w3.org/2000/svg">
<circle cx="22" cy="22" r="14" fill="#B34FA2"/>
<path d="M6.46473 6.46447L14.8299 8.7059L8.70617 14.8296L6.46473 6.46447Z" fill="#B34FA2"/>
<path d="M37.6066 6.53551L29.2414 8.77695L35.3651 14.9007L37.6066 6.53551Z" fill="#B34FA2"/>
<path d="M29.6551 34.9557L35.45 28.5198L38.1261 36.7562L29.6551 34.9557Z" fill="#B34FA2"/>
<path d="M15.0558 35.8453L9.26099 29.4095L6.58482 37.6459L15.0558 35.8453Z" fill="#B34FA2"/>
<path d="M44 22L36.5 26.3301V17.6699L44 22Z" fill="#B34FA2"/>
<path d="M0 22L7.5 17.6699L7.5 26.3301L0 22Z" fill="#B34FA2"/>
<path d="M22 44L17.6699 36.5H26.3301L22 44Z" fill="#B34FA2"/>
<path d="M22 0L26.3301 7.5H17.6699L22 0Z" fill="#B34FA2"/>
<path d="M15.3997 19.3C15.9317 19.0947 16.4497 18.8333 16.9537 18.516C17.4577 18.1893 17.9197 17.7833 18.3397 17.298H19.2637V27H17.9617V19.104C17.8497 19.2067 17.7097 19.314 17.5417 19.426C17.383 19.538 17.2057 19.6453 17.0097 19.748C16.823 19.8507 16.6223 19.9487 16.4077 20.042C16.2023 20.1353 16.0017 20.2147 15.8057 20.28L15.3997 19.3ZM23.302 19.3C23.834 19.0947 24.352 18.8333 24.856 18.516C25.36 18.1893 25.822 17.7833 26.242 17.298H27.166V27H25.864V19.104C25.752 19.2067 25.612 19.314 25.444 19.426C25.2853 19.538 25.108 19.6453 24.912 19.748C24.7253 19.8507 24.5247 19.9487 24.31 20.042C24.1047 20.1353 23.904 20.2147 23.708 20.28L23.302 19.3Z" fill="black"/>
</svg>
