<svg width="44" height="44" viewBox="0 0 44 44" fill="none" xmlns="http://www.w3.org/2000/svg">
<circle cx="22" cy="22" r="14" fill="#FFA500"/>
<path d="M6.46473 6.46447L14.8299 8.7059L8.70617 14.8296L6.46473 6.46447Z" fill="#FFA500"/>
<path d="M37.6066 6.53551L29.2414 8.77695L35.3651 14.9007L37.6066 6.53551Z" fill="#FFA500"/>
<path d="M29.6551 34.9555L35.45 28.5197L38.1261 36.7561L29.6551 34.9555Z" fill="#FFA500"/>
<path d="M15.0558 35.8454L9.26099 29.4096L6.58482 37.646L15.0558 35.8454Z" fill="#FFA500"/>
<path d="M44 22L36.5 26.3301V17.6699L44 22Z" fill="#FFA500"/>
<path d="M0 22L7.5 17.6699L7.5 26.3301L0 22Z" fill="#FFA500"/>
<path d="M22 44L17.6699 36.5H26.3301L22 44Z" fill="#FFA500"/>
<path d="M22 0L26.3301 7.5H17.6699L22 0Z" fill="#FFA500"/>
<path d="M21.164 26.048C21.9947 26.048 22.5873 25.8847 22.942 25.558C23.306 25.2313 23.488 24.7927 23.488 24.242C23.488 23.8873 23.4133 23.5887 23.264 23.346C23.1147 23.1033 22.9187 22.912 22.676 22.772C22.4333 22.6227 22.1487 22.52 21.822 22.464C21.5047 22.3987 21.178 22.366 20.842 22.366H20.506V21.302H20.968C21.2013 21.302 21.4393 21.2787 21.682 21.232C21.934 21.1853 22.1627 21.1013 22.368 20.98C22.5733 20.8587 22.7413 20.6953 22.872 20.49C23.0027 20.2753 23.068 20.0093 23.068 19.692C23.068 19.4307 23.0213 19.2067 22.928 19.02C22.8347 18.8333 22.7087 18.6793 22.55 18.558C22.4007 18.4367 22.2233 18.3527 22.018 18.306C21.822 18.25 21.612 18.222 21.388 18.222C20.94 18.222 20.5573 18.2873 20.24 18.418C19.932 18.5487 19.6707 18.684 19.456 18.824L18.952 17.83C19.064 17.7553 19.204 17.676 19.372 17.592C19.5493 17.4987 19.7453 17.4147 19.96 17.34C20.1747 17.2653 20.4033 17.2047 20.646 17.158C20.898 17.102 21.1593 17.074 21.43 17.074C21.9433 17.074 22.3867 17.1393 22.76 17.27C23.1333 17.3913 23.4413 17.5687 23.684 17.802C23.9267 18.026 24.1087 18.2967 24.23 18.614C24.3513 18.922 24.412 19.258 24.412 19.622C24.412 20.126 24.2673 20.56 23.978 20.924C23.6887 21.2787 23.3387 21.5493 22.928 21.736C23.18 21.8107 23.4227 21.918 23.656 22.058C23.8893 22.198 24.09 22.3753 24.258 22.59C24.4353 22.8047 24.5753 23.052 24.678 23.332C24.79 23.612 24.846 23.9247 24.846 24.27C24.846 24.69 24.7713 25.082 24.622 25.446C24.482 25.8007 24.258 26.1087 23.95 26.37C23.6513 26.6313 23.2733 26.8367 22.816 26.986C22.3587 27.1353 21.8173 27.21 21.192 27.21C20.9493 27.21 20.6973 27.1913 20.436 27.154C20.184 27.1167 19.946 27.07 19.722 27.014C19.498 26.958 19.302 26.902 19.134 26.846C18.966 26.79 18.8447 26.7433 18.77 26.706L19.022 25.572C19.1807 25.6467 19.442 25.7447 19.806 25.866C20.1793 25.9873 20.632 26.048 21.164 26.048Z" fill="black"/>
</svg>
