<svg width="44" height="44" viewBox="0 0 44 44" fill="none" xmlns="http://www.w3.org/2000/svg">
<circle cx="22" cy="22" r="14" fill="#FFA500"/>
<path d="M6.46473 6.46447L14.8299 8.7059L8.70617 14.8296L6.46473 6.46447Z" fill="#FFA500"/>
<path d="M37.6066 6.53551L29.2414 8.77695L35.3651 14.9007L37.6066 6.53551Z" fill="#FFA500"/>
<path d="M29.6551 34.9555L35.45 28.5197L38.1261 36.7561L29.6551 34.9555Z" fill="#FFA500"/>
<path d="M15.0558 35.8454L9.26099 29.4096L6.58482 37.646L15.0558 35.8454Z" fill="#FFA500"/>
<path d="M44 22L36.5 26.3301V17.6699L44 22Z" fill="#FFA500"/>
<path d="M0 22L7.5 17.6699L7.5 26.3301L0 22Z" fill="#FFA500"/>
<path d="M22 44L17.6699 36.5H26.3301L22 44Z" fill="#FFA500"/>
<path d="M22 0L26.3301 7.5H17.6699L22 0Z" fill="#FFA500"/>
<path d="M18.56 23.64C18.7373 23.2293 18.98 22.7533 19.288 22.212C19.596 21.6613 19.9413 21.0967 20.324 20.518C20.716 19.9393 21.1313 19.37 21.57 18.81C22.018 18.25 22.466 17.746 22.914 17.298H24.16V23.458H25.308V24.522H24.16V27H22.9V24.522H18.56V23.64ZM22.9 18.838C22.62 19.1367 22.3353 19.4727 22.046 19.846C21.766 20.21 21.4907 20.5927 21.22 20.994C20.9493 21.3953 20.6927 21.806 20.45 22.226C20.2167 22.646 20.0067 23.0567 19.82 23.458H22.9V18.838Z" fill="black"/>
</svg>
