<svg width="44" height="44" viewBox="0 0 44 44" fill="none" xmlns="http://www.w3.org/2000/svg">
<circle cx="22" cy="22" r="14" fill="#FFA500"/>
<path d="M6.46473 6.46447L14.8299 8.7059L8.70617 14.8296L6.46473 6.46447Z" fill="#FFA500"/>
<path d="M37.6066 6.53551L29.2414 8.77695L35.3651 14.9007L37.6066 6.53551Z" fill="#FFA500"/>
<path d="M29.6551 34.9555L35.45 28.5197L38.1261 36.7561L29.6551 34.9555Z" fill="#FFA500"/>
<path d="M15.0558 35.8454L9.26099 29.4096L6.58482 37.646L15.0558 35.8454Z" fill="#FFA500"/>
<path d="M44 22L36.5 26.3301V17.6699L44 22Z" fill="#FFA500"/>
<path d="M0 22L7.5 17.6699L7.5 26.3301L0 22Z" fill="#FFA500"/>
<path d="M22 44L17.6699 36.5H26.3301L22 44Z" fill="#FFA500"/>
<path d="M22 0L26.3301 7.5H17.6699L22 0Z" fill="#FFA500"/>
<path d="M20.786 21.036C22.1953 21.092 23.2267 21.4 23.88 21.96C24.5427 22.52 24.874 23.2807 24.874 24.242C24.874 24.6713 24.7993 25.068 24.65 25.432C24.51 25.796 24.2907 26.1087 23.992 26.37C23.7027 26.6313 23.334 26.8367 22.886 26.986C22.438 27.1353 21.906 27.21 21.29 27.21C21.0473 27.21 20.8 27.1913 20.548 27.154C20.296 27.1167 20.0627 27.07 19.848 27.014C19.6333 26.958 19.442 26.902 19.274 26.846C19.106 26.79 18.9847 26.7433 18.91 26.706L19.162 25.572C19.3207 25.6467 19.5773 25.7447 19.932 25.866C20.296 25.9873 20.7393 26.048 21.262 26.048C21.682 26.048 22.032 26.0013 22.312 25.908C22.6013 25.8147 22.8347 25.6887 23.012 25.53C23.1893 25.3713 23.3153 25.1893 23.39 24.984C23.474 24.7693 23.516 24.5453 23.516 24.312C23.516 23.9573 23.4553 23.6447 23.334 23.374C23.2127 23.094 22.998 22.8607 22.69 22.674C22.382 22.4873 21.9713 22.3473 21.458 22.254C20.9447 22.1513 20.296 22.1 19.512 22.1C19.568 21.6427 19.61 21.2133 19.638 20.812C19.6753 20.4107 19.708 20.0187 19.736 19.636C19.764 19.2533 19.7873 18.8753 19.806 18.502C19.8247 18.1193 19.8433 17.718 19.862 17.298H24.538V18.404H20.996C20.9867 18.544 20.9727 18.7353 20.954 18.978C20.9353 19.2113 20.9167 19.4587 20.898 19.72C20.8793 19.972 20.8607 20.2193 20.842 20.462C20.8233 20.7047 20.8047 20.896 20.786 21.036Z" fill="black"/>
</svg>
